# xmcd
# Copyright (C) 1995-1998 Ti Kan
#
# Track frame offsets:
#       150
#       17625
#       39562
#       56947
#
# Disc length: 1005 seconds
#
# Revision: 0
# Processed by: cddbd v1.4PL0 Copyright (c) Steve Scherf et al.
# Submitted via: CD-Transfer v1.0
#
DISCID=2f03eb04
DTITLE=Ougeblick - Ä Bsungere Kick
DYEAR=2002
DGENRE=
TTITLE0=Autag
TTITLE1=Du Treisch Mi Dür Ds Füür
TTITLE2=Chum Doch Zrügg
TTITLE3=Verborgne Land
EXTD=
EXTT0=
EXTT1=
EXTT2=
EXTT3=
PLAYORDER=
